<svg width="147" height="48" viewBox="0 0 147 48" fill="none" xmlns="http://www.w3.org/2000/svg">
<rect width="147" height="48" rx="8" fill="#2D3436"/>
<path d="M47.3942 38H44.4283L48.9474 24.9091H52.5142L57.027 38H54.0611L50.782 27.9006H50.6797L47.3942 38ZM47.2088 32.8544H54.2145V35.0149H47.2088V32.8544ZM58.7515 41.6818V28.1818H61.4362V29.831H61.5576C61.6769 29.5668 61.8495 29.2983 62.0754 29.0256C62.3055 28.7486 62.6038 28.5185 62.9702 28.3352C63.341 28.1477 63.8012 28.054 64.3509 28.054C65.0668 28.054 65.7273 28.2415 66.3325 28.6165C66.9376 28.9872 67.4212 29.5476 67.7835 30.2976C68.1457 31.0433 68.3268 31.9787 68.3268 33.1037C68.3268 34.1989 68.1499 35.1236 67.7962 35.8778C67.4468 36.6278 66.9695 37.1967 66.3644 37.5845C65.7636 37.968 65.0903 38.1598 64.3445 38.1598C63.8161 38.1598 63.3665 38.0724 62.9958 37.8977C62.6293 37.723 62.3289 37.5036 62.0945 37.2393C61.8602 36.9709 61.6812 36.7003 61.5576 36.4276H61.4745V41.6818H58.7515ZM61.417 33.0909C61.417 33.6747 61.4979 34.1839 61.6599 34.6186C61.8218 35.0533 62.0562 35.392 62.363 35.6349C62.6698 35.8736 63.0427 35.9929 63.4816 35.9929C63.9248 35.9929 64.2998 35.8714 64.6066 35.6286C64.9134 35.3814 65.1457 35.0405 65.3033 34.6058C65.4653 34.1669 65.5462 33.6619 65.5462 33.0909C65.5462 32.5241 65.4674 32.0256 65.3097 31.5952C65.1521 31.1648 64.9198 30.8281 64.613 30.5852C64.3062 30.3423 63.929 30.2209 63.4816 30.2209C63.0384 30.2209 62.6634 30.3381 62.3566 30.5724C62.054 30.8068 61.8218 31.1392 61.6599 31.5696C61.4979 32 61.417 32.5071 61.417 33.0909ZM70.3421 41.6818V28.1818H73.0268V29.831H73.1482C73.2675 29.5668 73.4401 29.2983 73.666 29.0256C73.8961 28.7486 74.1944 28.5185 74.5609 28.3352C74.9316 28.1477 75.3918 28.054 75.9415 28.054C76.6575 28.054 77.318 28.2415 77.9231 28.6165C78.5282 28.9872 79.0119 29.5476 79.3741 30.2976C79.7363 31.0433 79.9174 31.9787 79.9174 33.1037C79.9174 34.1989 79.7406 35.1236 79.3869 35.8778C79.0374 36.6278 78.5602 37.1967 77.955 37.5845C77.3542 37.968 76.6809 38.1598 75.9352 38.1598C75.4067 38.1598 74.9572 38.0724 74.5864 37.8977C74.22 37.723 73.9195 37.5036 73.6852 37.2393C73.4508 36.9709 73.2718 36.7003 73.1482 36.4276H73.0651V41.6818H70.3421ZM73.0076 33.0909C73.0076 33.6747 73.0886 34.1839 73.2505 34.6186C73.4124 35.0533 73.6468 35.392 73.9536 35.6349C74.2604 35.8736 74.6333 35.9929 75.0722 35.9929C75.5154 35.9929 75.8904 35.8714 76.1972 35.6286C76.504 35.3814 76.7363 35.0405 76.894 34.6058C77.0559 34.1669 77.1369 33.6619 77.1369 33.0909C77.1369 32.5241 77.058 32.0256 76.9004 31.5952C76.7427 31.1648 76.5104 30.8281 76.2036 30.5852C75.8968 30.3423 75.5197 30.2209 75.0722 30.2209C74.629 30.2209 74.254 30.3381 73.9472 30.5724C73.6447 30.8068 73.4124 31.1392 73.2505 31.5696C73.0886 32 73.0076 32.5071 73.0076 33.0909ZM93.4515 28.674C93.4003 28.1584 93.1809 27.7578 92.7931 27.4723C92.4053 27.1868 91.879 27.044 91.2142 27.044C90.7625 27.044 90.3811 27.108 90.0701 27.2358C89.759 27.3594 89.5203 27.532 89.3542 27.7536C89.1922 27.9751 89.1113 28.2266 89.1113 28.5078C89.1027 28.7422 89.1517 28.9467 89.2583 29.1214C89.3691 29.2962 89.5203 29.4474 89.7121 29.5753C89.9039 29.6989 90.1255 29.8075 90.3769 29.9013C90.6283 29.9908 90.8968 30.0675 91.1823 30.1314L92.3584 30.4126C92.9294 30.5405 93.4536 30.7109 93.9309 30.924C94.4081 31.1371 94.8215 31.3991 95.1709 31.7102C95.5203 32.0213 95.7909 32.3878 95.9827 32.8097C96.1787 33.2315 96.2789 33.7152 96.2831 34.2607C96.2789 35.0618 96.0743 35.7564 95.6695 36.3445C95.2689 36.9283 94.6894 37.3821 93.9309 37.706C93.1766 38.0256 92.2668 38.1854 91.2015 38.1854C90.1446 38.1854 89.2242 38.0234 88.4401 37.6996C87.6603 37.3757 87.0509 36.8963 86.612 36.2614C86.1773 35.6222 85.9493 34.8317 85.928 33.8899H88.6063C88.6361 34.3288 88.7618 34.6953 88.9834 34.9893C89.2093 35.2791 89.5097 35.4986 89.8847 35.6477C90.264 35.7926 90.6922 35.8651 91.1695 35.8651C91.6382 35.8651 92.0452 35.7969 92.3904 35.6605C92.7398 35.5241 93.0104 35.3345 93.2022 35.0916C93.3939 34.8487 93.4898 34.5696 93.4898 34.2543C93.4898 33.9602 93.4024 33.7131 93.2277 33.5128C93.0573 33.3125 92.8059 33.142 92.4735 33.0014C92.1453 32.8608 91.7426 32.733 91.2654 32.6179L89.8399 32.2599C88.7363 31.9915 87.8648 31.5717 87.2256 31.0007C86.5864 30.4297 86.2689 29.6605 86.2732 28.6932C86.2689 27.9006 86.4799 27.2081 86.906 26.6158C87.3364 26.0234 87.9266 25.5611 88.6766 25.2287C89.4266 24.8963 90.2789 24.7301 91.2334 24.7301C92.205 24.7301 93.053 24.8963 93.7774 25.2287C94.5061 25.5611 95.0729 26.0234 95.4777 26.6158C95.8826 27.2081 96.0914 27.8942 96.1042 28.674H93.4515ZM103.516 28.1818V30.2273H97.6033V28.1818H103.516ZM98.9457 25.8295H101.669V34.983C101.669 35.2344 101.707 35.4304 101.784 35.571C101.86 35.7074 101.967 35.8033 102.103 35.8587C102.244 35.9141 102.406 35.9418 102.589 35.9418C102.717 35.9418 102.845 35.9311 102.973 35.9098C103.1 35.8842 103.199 35.8651 103.267 35.8523L103.695 37.8786C103.559 37.9212 103.367 37.9702 103.12 38.0256C102.873 38.0852 102.572 38.1214 102.218 38.1342C101.562 38.1598 100.987 38.0724 100.493 37.8722C100.002 37.6719 99.6211 37.3608 99.3484 36.9389C99.0756 36.517 98.9414 35.9844 98.9457 35.3409V25.8295ZM109.82 38.1918C108.827 38.1918 107.969 37.9808 107.244 37.5589C106.524 37.1328 105.968 36.5405 105.576 35.782C105.184 35.0192 104.988 34.1349 104.988 33.1293C104.988 32.1151 105.184 31.2287 105.576 30.4702C105.968 29.7074 106.524 29.1151 107.244 28.6932C107.969 28.267 108.827 28.054 109.82 28.054C110.813 28.054 111.67 28.267 112.39 28.6932C113.114 29.1151 113.673 29.7074 114.065 30.4702C114.457 31.2287 114.653 32.1151 114.653 33.1293C114.653 34.1349 114.457 35.0192 114.065 35.782C113.673 36.5405 113.114 37.1328 112.39 37.5589C111.67 37.9808 110.813 38.1918 109.82 38.1918ZM109.833 36.0824C110.285 36.0824 110.662 35.9545 110.965 35.6989C111.267 35.4389 111.495 35.0852 111.649 34.6378C111.806 34.1903 111.885 33.6811 111.885 33.1101C111.885 32.5391 111.806 32.0298 111.649 31.5824C111.495 31.1349 111.267 30.7812 110.965 30.5213C110.662 30.2614 110.285 30.1314 109.833 30.1314C109.377 30.1314 108.994 30.2614 108.683 30.5213C108.376 30.7812 108.144 31.1349 107.986 31.5824C107.832 32.0298 107.756 32.5391 107.756 33.1101C107.756 33.6811 107.832 34.1903 107.986 34.6378C108.144 35.0852 108.376 35.4389 108.683 35.6989C108.994 35.9545 109.377 36.0824 109.833 36.0824ZM116.623 38V28.1818H119.263V29.8949H119.366C119.545 29.2855 119.845 28.8253 120.267 28.5142C120.689 28.1989 121.175 28.0412 121.724 28.0412C121.861 28.0412 122.008 28.0497 122.165 28.0668C122.323 28.0838 122.461 28.1072 122.581 28.1371V30.5533C122.453 30.5149 122.276 30.4808 122.05 30.451C121.824 30.4212 121.618 30.4062 121.43 30.4062C121.03 30.4062 120.672 30.4936 120.356 30.6683C120.045 30.8388 119.798 31.0774 119.615 31.3842C119.436 31.6911 119.346 32.0447 119.346 32.4453V38H116.623ZM128.206 38.1918C127.196 38.1918 126.327 37.9872 125.598 37.5781C124.874 37.1648 124.315 36.581 123.923 35.8267C123.531 35.0682 123.335 34.1712 123.335 33.1357C123.335 32.1257 123.531 31.2393 123.923 30.4766C124.315 29.7138 124.867 29.1193 125.579 28.6932C126.295 28.267 127.134 28.054 128.097 28.054C128.745 28.054 129.348 28.1584 129.906 28.3672C130.469 28.5717 130.959 28.8807 131.376 29.294C131.798 29.7074 132.126 30.2273 132.361 30.8537C132.595 31.4759 132.712 32.2045 132.712 33.0398V33.7876H124.422V32.1001H130.149C130.149 31.7081 130.064 31.3608 129.894 31.0582C129.723 30.7557 129.487 30.5192 129.184 30.3487C128.886 30.174 128.538 30.0866 128.142 30.0866C127.729 30.0866 127.362 30.1825 127.043 30.3743C126.727 30.5618 126.48 30.8153 126.301 31.1349C126.122 31.4503 126.031 31.8018 126.026 32.1896V33.794C126.026 34.2798 126.116 34.6996 126.295 35.0533C126.478 35.407 126.736 35.6797 127.068 35.8714C127.401 36.0632 127.795 36.1591 128.251 36.1591C128.553 36.1591 128.83 36.1165 129.082 36.0312C129.333 35.946 129.548 35.8182 129.727 35.6477C129.906 35.4773 130.043 35.2685 130.136 35.0213L132.655 35.1875C132.527 35.7926 132.265 36.321 131.869 36.7727C131.477 37.2202 130.969 37.5696 130.347 37.821C129.729 38.0682 129.016 38.1918 128.206 38.1918Z" fill="white"/>
<path d="M52.1932 12C52.0838 11.6652 51.9396 11.3653 51.7607 11.1001C51.585 10.8317 51.3745 10.603 51.1293 10.4141C50.8873 10.2251 50.6122 10.081 50.304 9.98153C49.9957 9.8821 49.6577 9.83239 49.2898 9.83239C48.6866 9.83239 48.138 9.98816 47.6442 10.2997C47.1503 10.6113 46.7576 11.0703 46.4659 11.6768C46.1742 12.2834 46.0284 13.0275 46.0284 13.9091C46.0284 14.7907 46.1759 15.5348 46.4709 16.1413C46.7659 16.7479 47.1652 17.2069 47.669 17.5185C48.1728 17.83 48.7396 17.9858 49.3693 17.9858C49.9527 17.9858 50.4664 17.8615 50.9105 17.6129C51.358 17.361 51.706 17.0064 51.9545 16.549C52.2064 16.0883 52.3324 15.5464 52.3324 14.9233L52.7102 15.0028H49.6477V13.9091H53.5256V15.0028C53.5256 15.8414 53.3466 16.5705 52.9886 17.1903C52.634 17.8101 52.1435 18.2907 51.517 18.6321C50.8939 18.9702 50.178 19.1392 49.3693 19.1392C48.4678 19.1392 47.6757 18.9271 46.9929 18.5028C46.3134 18.0786 45.7831 17.4754 45.402 16.6932C45.0241 15.911 44.8352 14.983 44.8352 13.9091C44.8352 13.1037 44.9429 12.3795 45.1584 11.7365C45.3771 11.0902 45.6854 10.54 46.0831 10.0859C46.4808 9.63187 46.9515 9.28385 47.495 9.0419C48.0386 8.79995 48.6368 8.67898 49.2898 8.67898C49.8267 8.67898 50.3272 8.76018 50.7912 8.92258C51.2585 9.08168 51.6745 9.30871 52.0391 9.60369C52.407 9.89536 52.7135 10.245 52.9588 10.6527C53.2041 11.0571 53.3731 11.5062 53.4659 12H52.1932ZM58.9299 19.1591C58.1941 19.1591 57.5594 18.9967 57.0257 18.6719C56.4954 18.3438 56.0861 17.8864 55.7978 17.2997C55.5127 16.7098 55.3702 16.0237 55.3702 15.2415C55.3702 14.4593 55.5127 13.7699 55.7978 13.1733C56.0861 12.5734 56.4872 12.1061 57.0009 11.7713C57.5179 11.4332 58.1212 11.2642 58.8105 11.2642C59.2083 11.2642 59.601 11.3305 59.9888 11.4631C60.3766 11.5956 60.7296 11.8111 61.0478 12.1094C61.3659 12.4044 61.6195 12.7955 61.8084 13.2827C61.9973 13.7699 62.0918 14.3698 62.0918 15.0824V15.5795H56.2054V14.5653H60.8986C60.8986 14.1345 60.8124 13.75 60.6401 13.4119C60.4711 13.0739 60.2291 12.8071 59.9142 12.6115C59.6027 12.416 59.2348 12.3182 58.8105 12.3182C58.3432 12.3182 57.9389 12.4342 57.5975 12.6662C57.2594 12.8949 56.9992 13.1932 56.8169 13.5611C56.6346 13.929 56.5435 14.3234 56.5435 14.7443V15.4205C56.5435 15.9972 56.6429 16.486 56.8418 16.8871C57.044 17.2848 57.324 17.5881 57.682 17.7969C58.04 18.0024 58.4559 18.1051 58.9299 18.1051C59.2381 18.1051 59.5165 18.062 59.7651 17.9759C60.017 17.8864 60.2341 17.7538 60.4164 17.5781C60.5987 17.3991 60.7395 17.1771 60.839 16.9119L61.9725 17.2301C61.8532 17.6146 61.6526 17.9527 61.3709 18.2443C61.0892 18.5327 60.7412 18.758 60.3269 18.9205C59.9126 19.0795 59.4469 19.1591 58.9299 19.1591ZM67.4476 11.3636V12.358H63.4902V11.3636H67.4476ZM64.6436 9.53409H65.8169V16.8125C65.8169 17.1439 65.865 17.3925 65.9611 17.5582C66.0605 17.7206 66.1865 17.83 66.339 17.8864C66.4947 17.9394 66.6588 17.9659 66.8311 17.9659C66.9604 17.9659 67.0665 17.9593 67.1493 17.946C67.2322 17.9295 67.2985 17.9162 67.3482 17.9062L67.5868 18.9602C67.5073 18.9901 67.3962 19.0199 67.2537 19.0497C67.1112 19.0829 66.9306 19.0994 66.7118 19.0994C66.3804 19.0994 66.0556 19.0282 65.7374 18.8857C65.4225 18.7431 65.1607 18.526 64.9519 18.2344C64.7464 17.9427 64.6436 17.5748 64.6436 17.1307V9.53409ZM73.65 19V11.3636H74.8233V19H73.65ZM74.2466 10.0909C74.0179 10.0909 73.8207 10.013 73.655 9.85724C73.4926 9.70147 73.4114 9.5142 73.4114 9.29545C73.4114 9.0767 73.4926 8.88944 73.655 8.73366C73.8207 8.57789 74.0179 8.5 74.2466 8.5C74.4753 8.5 74.6709 8.57789 74.8333 8.73366C74.999 8.88944 75.0819 9.0767 75.0819 9.29545C75.0819 9.5142 74.999 9.70147 74.8333 9.85724C74.6709 10.013 74.4753 10.0909 74.2466 10.0909ZM80.5433 11.3636V12.358H76.5859V11.3636H80.5433ZM77.7393 9.53409H78.9126V16.8125C78.9126 17.1439 78.9607 17.3925 79.0568 17.5582C79.1563 17.7206 79.2822 17.83 79.4347 17.8864C79.5904 17.9394 79.7545 17.9659 79.9268 17.9659C80.0561 17.9659 80.1622 17.9593 80.245 17.946C80.3279 17.9295 80.3942 17.9162 80.4439 17.9062L80.6825 18.9602C80.603 18.9901 80.492 19.0199 80.3494 19.0497C80.2069 19.0829 80.0263 19.0994 79.8075 19.0994C79.4761 19.0994 79.1513 19.0282 78.8331 18.8857C78.5182 18.7431 78.2564 18.526 78.0476 18.2344C77.8421 17.9427 77.7393 17.5748 77.7393 17.1307V9.53409ZM90.1463 11.3636V12.358H86.0298V11.3636H90.1463ZM87.2628 19V10.3097C87.2628 9.87216 87.3655 9.50758 87.571 9.21591C87.7765 8.92424 88.0433 8.70549 88.3714 8.55966C88.6996 8.41383 89.0459 8.34091 89.4105 8.34091C89.6989 8.34091 89.9342 8.36411 90.1165 8.41051C90.2988 8.45691 90.4347 8.5 90.5241 8.53977L90.1861 9.55398C90.1264 9.53409 90.0436 9.50923 89.9375 9.4794C89.8348 9.44957 89.6989 9.43466 89.5298 9.43466C89.142 9.43466 88.862 9.53243 88.6896 9.72798C88.5206 9.92353 88.4361 10.2102 88.4361 10.5881V19H87.2628ZM92.0407 19V11.3636H93.1742V12.517H93.2537C93.3929 12.1392 93.6448 11.8326 94.0094 11.5973C94.374 11.362 94.785 11.2443 95.2424 11.2443C95.3285 11.2443 95.4363 11.246 95.5655 11.2493C95.6948 11.2526 95.7926 11.2576 95.8588 11.2642V12.4574C95.8191 12.4474 95.7279 12.4325 95.5854 12.4126C95.4462 12.3894 95.2987 12.3778 95.1429 12.3778C94.7717 12.3778 94.4403 12.4557 94.1486 12.6115C93.8603 12.764 93.6316 12.9761 93.4625 13.2479C93.2968 13.5163 93.214 13.8229 93.214 14.1676V19H92.0407ZM100.369 19.1591C99.6801 19.1591 99.0752 18.995 98.5549 18.6669C98.0378 18.3388 97.6335 17.8797 97.3418 17.2898C97.0534 16.6998 96.9093 16.0104 96.9093 15.2216C96.9093 14.4261 97.0534 13.7318 97.3418 13.1385C97.6335 12.5452 98.0378 12.0845 98.5549 11.7564C99.0752 11.4283 99.6801 11.2642 100.369 11.2642C101.059 11.2642 101.662 11.4283 102.179 11.7564C102.7 12.0845 103.104 12.5452 103.392 13.1385C103.684 13.7318 103.83 14.4261 103.83 15.2216C103.83 16.0104 103.684 16.6998 103.392 17.2898C103.104 17.8797 102.7 18.3388 102.179 18.6669C101.662 18.995 101.059 19.1591 100.369 19.1591ZM100.369 18.1051C100.893 18.1051 101.324 17.9709 101.662 17.7024C102 17.4339 102.25 17.081 102.413 16.6435C102.575 16.206 102.656 15.732 102.656 15.2216C102.656 14.7112 102.575 14.2356 102.413 13.7947C102.25 13.3539 102 12.9976 101.662 12.7259C101.324 12.4541 100.893 12.3182 100.369 12.3182C99.8458 12.3182 99.415 12.4541 99.0769 12.7259C98.7388 12.9976 98.4886 13.3539 98.3262 13.7947C98.1638 14.2356 98.0826 14.7112 98.0826 15.2216C98.0826 15.732 98.1638 16.206 98.3262 16.6435C98.4886 17.081 98.7388 17.4339 99.0769 17.7024C99.415 17.9709 99.8458 18.1051 100.369 18.1051ZM105.871 19V11.3636H107.004V12.5568H107.104C107.263 12.1491 107.52 11.8326 107.874 11.6072C108.229 11.3786 108.655 11.2642 109.152 11.2642C109.656 11.2642 110.075 11.3786 110.41 11.6072C110.748 11.8326 111.011 12.1491 111.2 12.5568H111.28C111.475 12.1624 111.769 11.8492 112.16 11.6172C112.551 11.3819 113.02 11.2642 113.567 11.2642C114.25 11.2642 114.808 11.478 115.242 11.9055C115.676 12.3298 115.893 12.991 115.893 13.8892V19H114.72V13.8892C114.72 13.3258 114.566 12.9231 114.258 12.6811C113.95 12.4392 113.587 12.3182 113.169 12.3182C112.632 12.3182 112.216 12.4806 111.921 12.8054C111.626 13.1269 111.479 13.5346 111.479 14.0284V19H110.286V13.7699C110.286 13.3357 110.145 12.986 109.863 12.7209C109.581 12.4524 109.218 12.3182 108.774 12.3182C108.469 12.3182 108.184 12.3994 107.919 12.5618C107.657 12.7242 107.445 12.9496 107.283 13.2379C107.124 13.523 107.044 13.8527 107.044 14.2273V19H105.871Z" fill="white"/>
<path d="M32.0438 34.4984C30.8673 36.2343 29.6199 37.9281 27.7204 37.9561C25.8209 37.9981 25.2114 36.8502 23.0568 36.8502C20.888 36.8502 20.2218 37.9281 18.4215 37.9981C16.5646 38.0681 15.1612 36.1503 13.9705 34.4564C11.5466 30.9986 9.68964 24.629 12.1845 20.3453C13.4177 18.2175 15.629 16.8735 18.0246 16.8315C19.839 16.8035 21.5684 18.0495 22.6882 18.0495C23.7939 18.0495 25.8918 16.5516 28.089 16.7755C29.0104 16.8175 31.5902 17.1395 33.2487 19.5474C33.1211 19.6314 30.1727 21.3392 30.2011 24.881C30.2436 29.1087 33.9575 30.5226 34 30.5366C33.9575 30.6346 33.4046 32.5525 32.0438 34.4984ZM23.9498 12.0999C24.9846 10.9379 26.6998 10.056 28.1173 10C28.3016 11.6379 27.6354 13.2898 26.6431 14.4657C25.665 15.6556 24.0491 16.5796 22.4614 16.4536C22.2488 14.8437 23.0426 13.1638 23.9498 12.0999Z" fill="white"/>
</svg>
