<svg width="147" height="48" viewBox="0 0 147 48" fill="none" xmlns="http://www.w3.org/2000/svg">
<rect width="147" height="48" rx="8" fill="#2D3436"/>
<path d="M48.0845 38H50.782L53.2685 29.4411H53.3707L55.8636 38H58.5611L62.3068 24.9091H59.2834L57.1165 34.0241H57.0014L54.6172 24.9091H52.0284L49.6378 34.005H49.5291L47.3622 24.9091H44.3388L48.0845 38ZM67.3568 38.1918C69.7858 38.1918 71.4221 37.0092 71.8056 35.1875L69.2872 35.0213C69.0123 35.7692 68.3092 36.1591 67.4015 36.1591C66.04 36.1591 65.1771 35.2578 65.1771 33.794V33.7876H71.8632V33.0398C71.8632 29.7031 69.8433 28.054 67.2481 28.054C64.3589 28.054 62.486 30.1058 62.486 33.1357C62.486 36.2486 64.3333 38.1918 67.3568 38.1918ZM65.1771 32.1001C65.2346 30.9815 66.0848 30.0866 67.2929 30.0866C68.4754 30.0866 69.2936 30.9304 69.3 32.1001H65.1771ZM73.8913 38H76.576V36.4276H76.6974C77.0745 37.2457 77.8991 38.1598 79.4843 38.1598C81.7216 38.1598 83.4666 36.3892 83.4666 33.1037C83.4666 29.7287 81.6449 28.054 79.4907 28.054C77.848 28.054 77.0618 29.032 76.6974 29.831H76.6143V24.9091H73.8913V38ZM76.5568 33.0909C76.5568 31.3395 77.2983 30.2209 78.6214 30.2209C79.9701 30.2209 80.686 31.3906 80.686 33.0909C80.686 34.804 79.9574 35.9929 78.6214 35.9929C77.311 35.9929 76.5568 34.8423 76.5568 33.0909ZM92.1571 38L93.1287 35.0149H97.8524L98.824 38H101.79L97.2771 24.9091H93.7103L89.1912 38H92.1571ZM93.8318 32.8544L95.4426 27.9006H95.5449L97.1556 32.8544H93.8318ZM103.514 41.6818H106.237V36.4276H106.32C106.698 37.2457 107.522 38.1598 109.107 38.1598C111.345 38.1598 113.09 36.3892 113.09 33.1037C113.09 29.7287 111.268 28.054 109.114 28.054C107.471 28.054 106.685 29.032 106.32 29.831H106.199V28.1818H103.514V41.6818ZM106.18 33.0909C106.18 31.3395 106.921 30.2209 108.244 30.2209C109.593 30.2209 110.309 31.3906 110.309 33.0909C110.309 34.804 109.58 35.9929 108.244 35.9929C106.934 35.9929 106.18 34.8423 106.18 33.0909ZM115.105 41.6818H117.828V36.4276H117.911C118.288 37.2457 119.113 38.1598 120.698 38.1598C122.935 38.1598 124.68 36.3892 124.68 33.1037C124.68 29.7287 122.859 28.054 120.704 28.054C119.062 28.054 118.275 29.032 117.911 29.831H117.79V28.1818H115.105V41.6818ZM117.77 33.0909C117.77 31.3395 118.512 30.2209 119.835 30.2209C121.184 30.2209 121.9 31.3906 121.9 33.0909C121.9 34.804 121.171 35.9929 119.835 35.9929C118.525 35.9929 117.77 34.8423 117.77 33.0909Z" fill="white"/>
<path d="M53.8239 13.9091C53.8239 10.6875 51.9347 8.67898 49.3295 8.67898C46.7244 8.67898 44.8352 10.6875 44.8352 13.9091C44.8352 17.1307 46.7244 19.1392 49.3295 19.1392C51.9347 19.1392 53.8239 17.1307 53.8239 13.9091ZM52.6307 13.9091C52.6307 16.554 51.179 17.9858 49.3295 17.9858C47.4801 17.9858 46.0284 16.554 46.0284 13.9091C46.0284 11.2642 47.4801 9.83239 49.3295 9.83239C51.179 9.83239 52.6307 11.2642 52.6307 13.9091ZM55.9879 21.8636H57.1612V17.8267H57.2607C57.5192 18.2443 58.0163 19.1591 59.4879 19.1591C61.397 19.1591 62.7294 17.6278 62.7294 15.2017C62.7294 12.7955 61.397 11.2642 59.468 11.2642C57.9766 11.2642 57.5192 12.179 57.2607 12.5767H57.1214V11.3636H55.9879V21.8636ZM57.1413 15.1818C57.1413 13.4716 57.897 12.3182 59.3288 12.3182C60.8203 12.3182 61.5561 13.571 61.5561 15.1818C61.5561 16.8125 60.8004 18.1051 59.3288 18.1051C57.9169 18.1051 57.1413 16.9119 57.1413 15.1818ZM67.9709 19.1591C69.522 19.1591 70.6555 18.3835 71.0135 17.2301L69.88 16.9119C69.5817 17.7074 68.8906 18.1051 67.9709 18.1051C66.5938 18.1051 65.6442 17.2152 65.5895 15.5795H71.1328V15.0824C71.1328 12.2386 69.4425 11.2642 67.8516 11.2642C65.7834 11.2642 64.4112 12.8949 64.4112 15.2415C64.4112 17.5881 65.7635 19.1591 67.9709 19.1591ZM65.5895 14.5653C65.669 13.3771 66.5092 12.3182 67.8516 12.3182C69.1243 12.3182 69.9396 13.2727 69.9396 14.5653H65.5895ZM74.3409 14.4062C74.3409 13.0739 75.1662 12.3182 76.2898 12.3182C77.3786 12.3182 78.0398 13.0291 78.0398 14.2273V19H79.2131V14.1477C79.2131 12.1989 78.174 11.2642 76.6278 11.2642C75.4744 11.2642 74.7585 11.7812 74.4006 12.5568H74.3011V11.3636H73.1676V19H74.3409V14.4062ZM88.8968 19.1591C90.965 19.1591 92.3571 17.5881 92.3571 15.2216C92.3571 12.8352 90.965 11.2642 88.8968 11.2642C86.8287 11.2642 85.4366 12.8352 85.4366 15.2216C85.4366 17.5881 86.8287 19.1591 88.8968 19.1591ZM88.8968 18.1051C87.3258 18.1051 86.6099 16.7528 86.6099 15.2216C86.6099 13.6903 87.3258 12.3182 88.8968 12.3182C90.4679 12.3182 91.1838 13.6903 91.1838 15.2216C91.1838 16.7528 90.4679 18.1051 88.8968 18.1051ZM99.2106 15.8778C99.2106 17.3097 98.1168 17.9659 97.2418 17.9659C96.2674 17.9659 95.5714 17.25 95.5714 16.1364V11.3636H94.3981V16.2159C94.3981 18.1648 95.4322 19.0994 96.864 19.0994C98.0174 19.0994 98.7731 18.483 99.131 17.7074H99.2106V19H100.384V11.3636H99.2106V15.8778ZM102.783 19H103.956V14.1676C103.956 13.1335 104.771 12.3778 105.885 12.3778C106.198 12.3778 106.521 12.4375 106.601 12.4574V11.2642C106.467 11.2543 106.159 11.2443 105.985 11.2443C105.07 11.2443 104.274 11.7614 103.996 12.517H103.916V11.3636H102.783V19Z" fill="white"/>
<path d="M32.4 13.2H15.6C14.2745 13.2 13.2 14.2745 13.2 15.6V32.4C13.2 33.7254 14.2745 34.8 15.6 34.8H32.4C33.7255 34.8 34.8 33.7254 34.8 32.4V15.6C34.8 14.2745 33.7255 13.2 32.4 13.2Z" stroke="white" stroke-width="2" stroke-linecap="round" stroke-linejoin="round"/>
<path d="M13.2 20.4H34.8" stroke="white" stroke-width="2" stroke-linecap="round" stroke-linejoin="round"/>
<path d="M20.4 34.8V20.4" stroke="white" stroke-width="2" stroke-linecap="round" stroke-linejoin="round"/>
</svg>
